:SAMPLES-PER-SECOND 30
:FULLY-SPECIFIED
:DEGREES
343
root  50.761 38.5561 8.86841 176.55 55.4053 169.614
RightUpLeg  -23.9971 -17.3289 -7.64702
RightLeg  12.8385 -13.7042 2.81011
RightFoot  6.55859 0.862631 -5.18397
RightToes  -1.33073e-015 0 -3.6325e-017
Spine  44.0543 -3.7414 6.66441
Spine1  6.62893 -1.29439 -2.00778
HEad  -37.383 -9.75115 7.94259
LeftShoulder1  2.35485 -5.36334 -20.1275
LeftArm  -1.12224 -44.1419 -60.0761
LeftForeArm  6.45446 -11.1624 -6.18581
LeftHand  -0.234692 1.14809 6.41848
RightShoulder  0.979362 1.36655 13.204
RightArm  3.62024 34.7595 49.5965
RightForeArm  -23.6414 5.10487 5.40207
RightHand  -1.13995 8.59623 -9.73628
LeftUpLeg  -21.2468 9.81637 -0.142316
LeftLeg  18.0221 3.22117 1.50084
LeftFoot  -4.55203 0.196615 -2.90138
LeftToes  -1.03319e-009 7.52634e-011 -3.26162e-012
344
root  50.6001 38.6823 8.97113 175.899 51.3926 169.99
RightUpLeg  -21.2679 -17.1074 -9.64612
RightLeg  11.5198 -17.5931 2.49425
RightFoot  6.97908 0.762213 -4.42415
RightToes  -1.33073e-015 0 -3.6325e-017
Spine  42.2458 -3.942 7.02626
Spine1  5.50223 -1.40626 -2.05917
HEad  -36.0175 -10.9099 9.31032
LeftShoulder1  2.40081 -4.74862 -22.8013
LeftArm  -1.56767 -36.2829 -57.8918
LeftForeArm  9.0142 -9.12543 -7.29781
LeftHand  -0.306941 -0.456169 6.1386
RightShoulder  0.803584 -0.0114487 16.3253
RightArm  5.87359 27.1886 50.4612
RightForeArm  -22.6306 5.86326 6.11495
RightHand  -1.52414 10.5455 -11.4476
LeftUpLeg  -17.6558 12.0387 0.425464
LeftLeg  20.2945 6.52504 2.99018
LeftFoot  -5.5708 0.137943 -2.07105
LeftToes  -1.03319e-009 7.52634e-011 -3.26162e-012
345
root  50.4019 38.7869 9.01264 175.794 47.4815 170.545
RightUpLeg  -19.0211 -17.6369 -11.1616
RightLeg  10.2246 -20.5981 2.38722
RightFoot  7.68383 0.764556 -4.24281
RightToes  -1.33073e-015 0 -3.6325e-017
Spine  39.7714 -3.91516 7.02368
Spine1  5.45089 -1.55519 -1.60945
HEad  -34.7193 -11.7675 9.64445
LeftShoulder1  2.30699 -4.15465 -23.906
LeftArm  -3.74074 -28.232 -56.0826
LeftForeArm  12.728 -7.81881 -7.13692
LeftHand  -0.132106 2.82224 5.44912
RightShoulder  0.688584 -0.736236 18.5545
RightArm  7.62509 21.0083 50.4348
RightForeArm  -20.6838 5.65519 6.65871
RightHand  -1.22291 8.56949 -10.5127
LeftUpLeg  -14.5667 15.1091 1.513
LeftLeg  22.2961 8.53319 4.13867
LeftFoot  -6.09112 0.0565646 -0.439789
LeftToes  -1.03319e-009 7.52634e-011 -3.26162e-012
346
root  50.1313 38.8158 9.0183 176.028 43.0448 171.117
RightUpLeg  -17.4186 -18.5793 -12.7362
RightLeg  9.85719 -23.9179 1.98609
RightFoot  8.17506 0.734401 -3.93997
RightToes  -1.33073e-015 0 -3.6325e-017
Spine  37.0682 -4.19371 7.1779
Spine1  5.4251 -1.93266 -1.50482
HEad  -33.2715 -12.5724 9.82638
LeftShoulder1  2.23755 -3.7642 -24.5919
LeftArm  -5.60287 -21.6024 -53.4782
LeftForeArm  13.7821 -5.4296 -6.80139
LeftHand  -0.144669 2.70904 5.8599
RightShoulder  0.512958 -1.60752 20.9296
RightArm  9.47079 15.4927 50.3273
RightForeArm  -20.1754 5.58965 7.30992
RightHand  -1.21901 8.04909 -10.8507
LeftUpLeg  -12.2 19.9443 2.87906
LeftLeg  23.9516 7.69963 4.05527
LeftFoot  -6.71862 0.0197695 0.51209
LeftToes  -1.03319e-009 7.52634e-011 -3.26162e-012
347
root  49.7526 38.8025 8.95891 176.331 38.6172 171.838
RightUpLeg  -15.6839 -19.7273 -14.476
RightLeg  9.55679 -27.019 1.94771
RightFoot  8.64644 0.647932 -3.33741
RightToes  -1.33073e-015 0 -3.6325e-017
Spine  34.7071 -4.34208 6.83886
Spine1  5.27569 -2.50159 -0.639392
HEad  -32.4548 -12.7093 9.96491
LeftShoulder1  2.15742 -3.80375 -23.276
LeftArm  -8.19046 -13.9154 -52.5823
LeftForeArm  13.4197 -4.42476 -5.72504
LeftHand  -0.033797 5.16403 5.58522
RightShoulder  0.356479 -2.22654 22.0668
RightArm  11.0187 10.2974 50.6348
RightForeArm  -19.1462 5.71804 7.80985
RightHand  -1.24758 8.58788 -10.6919
LeftUpLeg  -10.032 24.2395 4.62157
LeftLeg  25.2575 8.09788 4.47876
LeftFoot  -7.36979 -0.00266872 1.35394
LeftToes  -1.03319e-009 7.52634e-011 -3.26162e-012
348
root  49.3149 38.7949 8.83197 176.502 34.5811 172.48
RightUpLeg  -13.7936 -20.7617 -16.2634
RightLeg  9.05456 -29.6534 2.07113
RightFoot  9.42177 0.574084 -2.77677
RightToes  -1.33073e-015 0 -3.6325e-017
Spine  32.0647 -4.32773 6.48583
Spine1  5.72925 -2.75864 -0.365525
HEad  -31.615 -12.9754 10.1249
LeftShoulder1  1.98958 -2.92232 -24.7679
LeftArm  -9.75698 -9.64288 -49.0591
LeftForeArm  11.7219 -2.08384 -4.96329
LeftHand  -0.0255692 5.3314 5.45438
RightShoulder  0.271124 -2.55521 23.0855
RightArm  11.8516 5.71813 50.7611
RightForeArm  -17.593 6.03369 8.02955
RightHand  -1.12609 7.43607 -10.4975
LeftUpLeg  -7.51603 29.7622 6.64923
LeftLeg  25.5031 10.0141 5.49335
LeftFoot  -7.79922 -0.0244469 2.30866
LeftToes  -1.03319e-009 7.52634e-011 -3.26162e-012
